# xmcd CD database file
#
# Track frame offsets:
#	150
#	24698
#	51253
#	63614
#	88521
#	105128
#	130817
#	143430
#	157655
#	183460
#	198628
#	215586
#	232525
#	247390
#	257887
#	270260
#	286867
#	309952
#
# Disc length: 4696 seconds
#
# Revision: 0
# Processed by: cddbd v1.5.2PL0 Copyright (c) Steve Scherf et al.
# Submitted via: CDex 1.97
#
DISCID=f3125612
DTITLE=Various Artist - Now Jazz - Disc 3
DYEAR=2018
DGENRE=Jazz
TTITLE0=Dave Brubeck - Take Five
TTITLE1=Ella Fitzgerald and Louis Armstrong - Cheek To Cheek
TTITLE2=Mel Torme - Comin' Home Baby
TTITLE3=Herbie Hancock - Cantaloupe Island
TTITLE4=Kenny G - Songbird
TTITLE5=Bob James - Angela
TTITLE6=Johnny Mathis - A Certain Smile
TTITLE7=Etta James - Stormy Weather
TTITLE8=Charles Mingus - Goodbye Pork Pie Hat
TTITLE9=Glenn Miller and His Orchestra - Moonlight Serenade
TTITLE10=Billie Holiday - Lady Sings The Blues
TTITLE11=Sonny Rollins - Alfie's Theme Differently
TTITLE12=Sarah Vaughan - Black Coffee
TTITLE13=Chet Baker - My Funny Valentine
TTITLE14=John Coltrane - My Favourite Things Pt 1
TTITLE15=Billy Taylor Trio - I Wish I Knew (How It Would Feel To Be Free)
TTITLE16=Cannonball Adderley - Work Song
TTITLE17=Miles Davis - So What
EXTD=YEAR: 2018
EXTT0=
EXTT1=
EXTT2=
EXTT3=
EXTT4=
EXTT5=
EXTT6=
EXTT7=
EXTT8=
EXTT9=
EXTT10=
EXTT11=
EXTT12=
EXTT13=
EXTT14=
EXTT15=
EXTT16=
EXTT17=
PLAYORDER=
